<?xml version="1.0" standalone="no"?>
<!DOCTYPE svg PUBLIC "-//W3C//DTD SVG 20010904//EN"
 "http://www.w3.org/TR/2001/REC-SVG-20010904/DTD/svg10.dtd">
<svg version="1.0" xmlns="http://www.w3.org/2000/svg"
 width="609.000000pt" height="609.000000pt" viewBox="0 0 609.000000 609.000000"
 preserveAspectRatio="xMidYMid meet">
<metadata>
Created by potrace 1.14, written by Peter Selinger 2001-2017
</metadata>
<g transform="translate(0.000000,609.000000) scale(0.100000,-0.100000)"
fill="#000000" stroke="none">
<path d="M5355 4400 c-21 -4 -31 -12 -33 -28 -4 -27 -15 -27 -70 -2 -37 17
-50 18 -90 9 -26 -6 -57 -13 -70 -15 -52 -10 -152 -57 -186 -87 -29 -27 -36
-41 -41 -87 -3 -30 -9 -58 -13 -62 -11 -10 -50 -16 -164 -23 -57 -3 -125 -8
-153 -10 -27 -3 -97 -7 -155 -10 -58 -3 -127 -8 -155 -10 -27 -2 -92 -6 -144
-10 -52 -4 -105 -11 -118 -16 -26 -10 -43 -2 -103 42 -32 24 -44 26 -155 29
-434 11 -1349 2 -1535 -14 -320 -29 -754 -26 -901 5 l-46 10 -7 61 c-3 35 -13
69 -23 80 -21 24 -153 87 -195 94 -18 3 -51 9 -73 14 -22 5 -59 11 -83 15 -38
5 -43 3 -54 -20 -16 -35 -64 -33 -125 4 l-48 30 -85 -15 c-47 -8 -95 -22 -108
-30 -23 -15 -24 -19 -17 -107 4 -51 9 -105 11 -122 30 -191 22 -907 -12 -1105
-3 -19 -16 -98 -29 -175 -26 -158 -32 -187 -45 -230 -5 -16 -14 -57 -21 -90
-10 -52 -65 -234 -131 -435 -33 -100 -29 -140 16 -204 56 -78 125 -123 244
-161 148 -48 291 -50 567 -10 17 2 62 7 100 10 39 4 88 8 111 10 37 3 73 10
114 21 9 2 33 40 54 84 22 44 40 79 42 78 1 -2 5 -32 8 -68 2 -36 5 -68 5 -71
1 -10 140 5 246 26 70 15 98 19 189 30 27 3 85 12 130 20 44 8 115 17 157 20
42 4 85 8 95 10 11 1 48 6 84 9 36 4 83 9 105 11 141 15 251 18 589 18 345 -1
623 -8 701 -17 17 -2 59 -7 95 -10 36 -4 76 -8 90 -11 45 -7 184 -25 245 -30
59 -6 87 -10 135 -20 23 -5 55 -11 120 -21 14 -3 63 -9 110 -14 47 -6 111 -15
143 -21 32 -5 74 -12 95 -15 20 -2 62 -8 92 -14 30 -5 96 -11 146 -14 105 -6
164 -12 283 -28 89 -11 252 -5 296 12 15 6 35 10 47 10 37 0 182 76 225 118
60 59 82 107 79 173 -2 30 -12 74 -24 98 -12 25 -22 51 -22 58 0 7 -11 37 -24
68 -14 30 -23 55 -21 55 2 0 -5 21 -16 48 -32 75 -35 83 -60 162 -13 41 -24
84 -25 95 -1 11 -12 49 -23 84 -12 35 -23 82 -26 105 -3 22 -10 56 -15 76 -11
42 -30 150 -35 205 -3 22 -7 58 -9 80 -25 198 -26 672 -2 801 2 10 7 48 11 84
3 36 8 76 10 90 3 14 7 48 9 75 3 28 8 71 11 97 6 47 6 47 -33 67 -22 11 -57
23 -79 26 -58 9 -174 12 -208 5z"/>
</g>
</svg>
